# xmcd
# 
# Track frame offsets:
#     150
#     21624
#     40902
#     65259
#     85803
#     113270
#     130682
#     152051
# 
# Disc length: 2407
# 
# Revision: 2
# Processed by: cddbd v1.5.2PL0 Copyright (c) Steve Scherf et al.
# Submitted via: fre:ac v1.0.17
# 
DISCID=5b096508
DTITLE=Saez - Messina -  Sur les quais [CD 2)
DYEAR=2012
DGENRE=Rock
TTITLE0=Marianne
TTITLE1=Sur le quai
TTITLE2=Légionnaire
TTITLE3=Webcams de nos amours
TTITLE4=Ma petite couturière
TTITLE5=Je suis un étranger
TTITLE6=Planche à roulettes
TTITLE7=Rois demain
EXTD=
EXTT0=
EXTT1=
EXTT2=
EXTT3=
EXTT4=
EXTT5=
EXTT6=
EXTT7=
PLAYORDER=
